<mxfile host="app.diagrams.net" agent="Mozilla/5.0 (Windows NT 10.0; Win64; x64) AppleWebKit/537.36 (KHTML, like Gecko) Chrome/133.0.0.0 Safari/537.36" version="26.0.16">
  <diagram name="PÃ¡gina-1" id="daLK60-5GXcM4xnMBw4M">
    <mxGraphModel dx="1214" dy="604" grid="1" gridSize="10" guides="1" tooltips="1" connect="1" arrows="1" fold="1" page="1" pageScale="1" pageWidth="827" pageHeight="1169" math="0" shadow="0">
      <root>
        <mxCell id="0" />
        <mxCell id="1" parent="0" />
        <mxCell id="WKNh7f4Mb3u7yUjpXLFU-7" style="edgeStyle=orthogonalEdgeStyle;rounded=0;orthogonalLoop=1;jettySize=auto;html=1;exitX=1;exitY=0.5;exitDx=0;exitDy=0;entryX=0;entryY=0.5;entryDx=0;entryDy=0;" parent="1" source="WKNh7f4Mb3u7yUjpXLFU-1" target="WKNh7f4Mb3u7yUjpXLFU-4" edge="1">
          <mxGeometry relative="1" as="geometry" />
        </mxCell>
        <mxCell id="WKNh7f4Mb3u7yUjpXLFU-42" style="edgeStyle=orthogonalEdgeStyle;rounded=0;orthogonalLoop=1;jettySize=auto;html=1;exitX=0;exitY=0.5;exitDx=0;exitDy=0;entryX=1;entryY=0.5;entryDx=0;entryDy=0;" parent="1" source="WKNh7f4Mb3u7yUjpXLFU-1" target="WKNh7f4Mb3u7yUjpXLFU-19" edge="1">
          <mxGeometry relative="1" as="geometry" />
        </mxCell>
        <mxCell id="WKNh7f4Mb3u7yUjpXLFU-43" style="edgeStyle=orthogonalEdgeStyle;rounded=0;orthogonalLoop=1;jettySize=auto;html=1;exitX=0;exitY=0.25;exitDx=0;exitDy=0;entryX=1;entryY=0.5;entryDx=0;entryDy=0;" parent="1" source="WKNh7f4Mb3u7yUjpXLFU-1" target="WKNh7f4Mb3u7yUjpXLFU-18" edge="1">
          <mxGeometry relative="1" as="geometry" />
        </mxCell>
        <mxCell id="WKNh7f4Mb3u7yUjpXLFU-44" style="edgeStyle=orthogonalEdgeStyle;rounded=0;orthogonalLoop=1;jettySize=auto;html=1;exitX=0;exitY=0;exitDx=0;exitDy=0;entryX=1;entryY=0.5;entryDx=0;entryDy=0;" parent="1" source="WKNh7f4Mb3u7yUjpXLFU-1" target="WKNh7f4Mb3u7yUjpXLFU-16" edge="1">
          <mxGeometry relative="1" as="geometry" />
        </mxCell>
        <mxCell id="WKNh7f4Mb3u7yUjpXLFU-45" style="edgeStyle=orthogonalEdgeStyle;rounded=0;orthogonalLoop=1;jettySize=auto;html=1;exitX=0;exitY=0.75;exitDx=0;exitDy=0;entryX=1;entryY=0.5;entryDx=0;entryDy=0;" parent="1" source="WKNh7f4Mb3u7yUjpXLFU-1" target="WKNh7f4Mb3u7yUjpXLFU-23" edge="1">
          <mxGeometry relative="1" as="geometry" />
        </mxCell>
        <mxCell id="WKNh7f4Mb3u7yUjpXLFU-1" value="Faculdade" style="rounded=0;whiteSpace=wrap;html=1;" parent="1" vertex="1">
          <mxGeometry x="200" y="140" width="120" height="60" as="geometry" />
        </mxCell>
        <mxCell id="WKNh7f4Mb3u7yUjpXLFU-52" style="edgeStyle=orthogonalEdgeStyle;rounded=0;orthogonalLoop=1;jettySize=auto;html=1;exitX=1;exitY=0;exitDx=0;exitDy=0;entryX=0;entryY=0.5;entryDx=0;entryDy=0;" parent="1" source="WKNh7f4Mb3u7yUjpXLFU-4" target="WKNh7f4Mb3u7yUjpXLFU-20" edge="1">
          <mxGeometry relative="1" as="geometry" />
        </mxCell>
        <mxCell id="WKNh7f4Mb3u7yUjpXLFU-53" style="edgeStyle=orthogonalEdgeStyle;rounded=0;orthogonalLoop=1;jettySize=auto;html=1;exitX=1;exitY=0.25;exitDx=0;exitDy=0;entryX=0;entryY=0.5;entryDx=0;entryDy=0;" parent="1" source="WKNh7f4Mb3u7yUjpXLFU-4" target="WKNh7f4Mb3u7yUjpXLFU-21" edge="1">
          <mxGeometry relative="1" as="geometry" />
        </mxCell>
        <mxCell id="WKNh7f4Mb3u7yUjpXLFU-54" style="edgeStyle=orthogonalEdgeStyle;rounded=0;orthogonalLoop=1;jettySize=auto;html=1;exitX=1;exitY=0.5;exitDx=0;exitDy=0;entryX=0;entryY=0.5;entryDx=0;entryDy=0;" parent="1" source="WKNh7f4Mb3u7yUjpXLFU-4" target="WKNh7f4Mb3u7yUjpXLFU-22" edge="1">
          <mxGeometry relative="1" as="geometry" />
        </mxCell>
        <mxCell id="WKNh7f4Mb3u7yUjpXLFU-55" style="edgeStyle=orthogonalEdgeStyle;rounded=0;orthogonalLoop=1;jettySize=auto;html=1;exitX=1;exitY=0.75;exitDx=0;exitDy=0;entryX=0;entryY=0.5;entryDx=0;entryDy=0;" parent="1" source="WKNh7f4Mb3u7yUjpXLFU-4" target="WKNh7f4Mb3u7yUjpXLFU-24" edge="1">
          <mxGeometry relative="1" as="geometry" />
        </mxCell>
        <mxCell id="WKNh7f4Mb3u7yUjpXLFU-56" style="edgeStyle=orthogonalEdgeStyle;rounded=0;orthogonalLoop=1;jettySize=auto;html=1;exitX=1;exitY=1;exitDx=0;exitDy=0;entryX=0;entryY=0.5;entryDx=0;entryDy=0;" parent="1" source="WKNh7f4Mb3u7yUjpXLFU-4" target="WKNh7f4Mb3u7yUjpXLFU-28" edge="1">
          <mxGeometry relative="1" as="geometry" />
        </mxCell>
        <mxCell id="WKNh7f4Mb3u7yUjpXLFU-65" style="edgeStyle=orthogonalEdgeStyle;rounded=0;orthogonalLoop=1;jettySize=auto;html=1;exitX=0.5;exitY=1;exitDx=0;exitDy=0;entryX=0.5;entryY=0;entryDx=0;entryDy=0;" parent="1" source="WKNh7f4Mb3u7yUjpXLFU-4" target="WKNh7f4Mb3u7yUjpXLFU-5" edge="1">
          <mxGeometry relative="1" as="geometry" />
        </mxCell>
        <mxCell id="WKNh7f4Mb3u7yUjpXLFU-4" value="Sala" style="rounded=0;whiteSpace=wrap;html=1;" parent="1" vertex="1">
          <mxGeometry x="500" y="140" width="120" height="60" as="geometry" />
        </mxCell>
        <mxCell id="WKNh7f4Mb3u7yUjpXLFU-11" style="edgeStyle=orthogonalEdgeStyle;rounded=0;orthogonalLoop=1;jettySize=auto;html=1;exitX=0;exitY=0.5;exitDx=0;exitDy=0;entryX=1;entryY=0.5;entryDx=0;entryDy=0;" parent="1" source="WKNh7f4Mb3u7yUjpXLFU-5" target="WKNh7f4Mb3u7yUjpXLFU-6" edge="1">
          <mxGeometry relative="1" as="geometry" />
        </mxCell>
        <mxCell id="WKNh7f4Mb3u7yUjpXLFU-57" style="edgeStyle=orthogonalEdgeStyle;rounded=0;orthogonalLoop=1;jettySize=auto;html=1;exitX=1;exitY=0.75;exitDx=0;exitDy=0;entryX=0;entryY=0.5;entryDx=0;entryDy=0;" parent="1" source="WKNh7f4Mb3u7yUjpXLFU-5" target="WKNh7f4Mb3u7yUjpXLFU-35" edge="1">
          <mxGeometry relative="1" as="geometry" />
        </mxCell>
        <mxCell id="WKNh7f4Mb3u7yUjpXLFU-58" style="edgeStyle=orthogonalEdgeStyle;rounded=0;orthogonalLoop=1;jettySize=auto;html=1;exitX=1;exitY=1;exitDx=0;exitDy=0;entryX=0;entryY=0;entryDx=0;entryDy=0;" parent="1" source="WKNh7f4Mb3u7yUjpXLFU-5" target="WKNh7f4Mb3u7yUjpXLFU-36" edge="1">
          <mxGeometry relative="1" as="geometry" />
        </mxCell>
        <mxCell id="WKNh7f4Mb3u7yUjpXLFU-59" style="edgeStyle=orthogonalEdgeStyle;rounded=0;orthogonalLoop=1;jettySize=auto;html=1;exitX=0.75;exitY=1;exitDx=0;exitDy=0;entryX=0;entryY=0;entryDx=0;entryDy=0;" parent="1" source="WKNh7f4Mb3u7yUjpXLFU-5" target="WKNh7f4Mb3u7yUjpXLFU-37" edge="1">
          <mxGeometry relative="1" as="geometry">
            <Array as="points">
              <mxPoint x="590" y="415" />
              <mxPoint x="690" y="415" />
              <mxPoint x="690" y="467" />
            </Array>
          </mxGeometry>
        </mxCell>
        <mxCell id="WKNh7f4Mb3u7yUjpXLFU-60" style="edgeStyle=orthogonalEdgeStyle;rounded=0;orthogonalLoop=1;jettySize=auto;html=1;exitX=0.5;exitY=1;exitDx=0;exitDy=0;entryX=0.5;entryY=0;entryDx=0;entryDy=0;" parent="1" source="WKNh7f4Mb3u7yUjpXLFU-5" target="WKNh7f4Mb3u7yUjpXLFU-38" edge="1">
          <mxGeometry relative="1" as="geometry">
            <Array as="points">
              <mxPoint x="560" y="430" />
              <mxPoint x="630" y="430" />
            </Array>
          </mxGeometry>
        </mxCell>
        <mxCell id="WKNh7f4Mb3u7yUjpXLFU-5" value="Maquina" style="rounded=0;whiteSpace=wrap;html=1;" parent="1" vertex="1">
          <mxGeometry x="500" y="310" width="120" height="60" as="geometry" />
        </mxCell>
        <mxCell id="WKNh7f4Mb3u7yUjpXLFU-46" style="edgeStyle=orthogonalEdgeStyle;rounded=0;orthogonalLoop=1;jettySize=auto;html=1;exitX=0.75;exitY=1;exitDx=0;exitDy=0;entryX=0.5;entryY=0;entryDx=0;entryDy=0;" parent="1" source="WKNh7f4Mb3u7yUjpXLFU-6" target="WKNh7f4Mb3u7yUjpXLFU-33" edge="1">
          <mxGeometry relative="1" as="geometry" />
        </mxCell>
        <mxCell id="WKNh7f4Mb3u7yUjpXLFU-47" style="edgeStyle=orthogonalEdgeStyle;rounded=0;orthogonalLoop=1;jettySize=auto;html=1;exitX=0.5;exitY=1;exitDx=0;exitDy=0;entryX=0.5;entryY=0;entryDx=0;entryDy=0;" parent="1" source="WKNh7f4Mb3u7yUjpXLFU-6" target="WKNh7f4Mb3u7yUjpXLFU-32" edge="1">
          <mxGeometry relative="1" as="geometry" />
        </mxCell>
        <mxCell id="WKNh7f4Mb3u7yUjpXLFU-48" style="edgeStyle=orthogonalEdgeStyle;rounded=0;orthogonalLoop=1;jettySize=auto;html=1;exitX=0.25;exitY=1;exitDx=0;exitDy=0;entryX=1;entryY=0;entryDx=0;entryDy=0;" parent="1" source="WKNh7f4Mb3u7yUjpXLFU-6" target="WKNh7f4Mb3u7yUjpXLFU-31" edge="1">
          <mxGeometry relative="1" as="geometry">
            <Array as="points">
              <mxPoint x="230" y="410" />
              <mxPoint x="150" y="410" />
              <mxPoint x="150" y="457" />
            </Array>
          </mxGeometry>
        </mxCell>
        <mxCell id="WKNh7f4Mb3u7yUjpXLFU-49" style="edgeStyle=orthogonalEdgeStyle;rounded=0;orthogonalLoop=1;jettySize=auto;html=1;exitX=0;exitY=1;exitDx=0;exitDy=0;entryX=1;entryY=0;entryDx=0;entryDy=0;" parent="1" source="WKNh7f4Mb3u7yUjpXLFU-6" target="WKNh7f4Mb3u7yUjpXLFU-27" edge="1">
          <mxGeometry relative="1" as="geometry">
            <Array as="points">
              <mxPoint x="200" y="390" />
              <mxPoint x="170" y="390" />
              <mxPoint x="170" y="380" />
              <mxPoint x="125" y="380" />
            </Array>
          </mxGeometry>
        </mxCell>
        <mxCell id="WKNh7f4Mb3u7yUjpXLFU-50" style="edgeStyle=orthogonalEdgeStyle;rounded=0;orthogonalLoop=1;jettySize=auto;html=1;exitX=0;exitY=0.75;exitDx=0;exitDy=0;entryX=1;entryY=0.5;entryDx=0;entryDy=0;" parent="1" source="WKNh7f4Mb3u7yUjpXLFU-6" target="WKNh7f4Mb3u7yUjpXLFU-26" edge="1">
          <mxGeometry relative="1" as="geometry" />
        </mxCell>
        <mxCell id="WKNh7f4Mb3u7yUjpXLFU-6" value="Transferencia" style="rounded=0;whiteSpace=wrap;html=1;" parent="1" vertex="1">
          <mxGeometry x="200" y="310" width="120" height="60" as="geometry" />
        </mxCell>
        <mxCell id="WKNh7f4Mb3u7yUjpXLFU-8" value="1:N" style="text;html=1;align=center;verticalAlign=middle;resizable=0;points=[];autosize=1;strokeColor=none;fillColor=none;" parent="1" vertex="1">
          <mxGeometry x="380" y="138" width="40" height="30" as="geometry" />
        </mxCell>
        <mxCell id="WKNh7f4Mb3u7yUjpXLFU-15" value="1:N" style="text;html=1;align=center;verticalAlign=middle;resizable=0;points=[];autosize=1;strokeColor=none;fillColor=none;" parent="1" vertex="1">
          <mxGeometry x="380" y="308" width="40" height="30" as="geometry" />
        </mxCell>
        <mxCell id="WKNh7f4Mb3u7yUjpXLFU-16" value="idFaculdade" style="ellipse;whiteSpace=wrap;html=1;" parent="1" vertex="1">
          <mxGeometry x="40" y="30" width="100" height="50" as="geometry" />
        </mxCell>
        <mxCell id="WKNh7f4Mb3u7yUjpXLFU-18" value="idSala" style="ellipse;whiteSpace=wrap;html=1;" parent="1" vertex="1">
          <mxGeometry x="40" y="88" width="100" height="50" as="geometry" />
        </mxCell>
        <mxCell id="WKNh7f4Mb3u7yUjpXLFU-19" value="Nome" style="ellipse;whiteSpace=wrap;html=1;" parent="1" vertex="1">
          <mxGeometry x="40" y="150" width="100" height="50" as="geometry" />
        </mxCell>
        <mxCell id="WKNh7f4Mb3u7yUjpXLFU-20" value="idSala" style="ellipse;whiteSpace=wrap;html=1;" parent="1" vertex="1">
          <mxGeometry x="670" y="10" width="100" height="50" as="geometry" />
        </mxCell>
        <mxCell id="WKNh7f4Mb3u7yUjpXLFU-21" value="idFaculdade" style="ellipse;whiteSpace=wrap;html=1;" parent="1" vertex="1">
          <mxGeometry x="670" y="70" width="100" height="50" as="geometry" />
        </mxCell>
        <mxCell id="WKNh7f4Mb3u7yUjpXLFU-22" value="idMaquina" style="ellipse;whiteSpace=wrap;html=1;" parent="1" vertex="1">
          <mxGeometry x="670" y="128" width="100" height="50" as="geometry" />
        </mxCell>
        <mxCell id="WKNh7f4Mb3u7yUjpXLFU-23" value="QTD Max Salas" style="ellipse;whiteSpace=wrap;html=1;" parent="1" vertex="1">
          <mxGeometry x="40" y="210" width="100" height="50" as="geometry" />
        </mxCell>
        <mxCell id="WKNh7f4Mb3u7yUjpXLFU-24" value="QTD Max Maquinas" style="ellipse;whiteSpace=wrap;html=1;" parent="1" vertex="1">
          <mxGeometry x="670" y="190" width="100" height="50" as="geometry" />
        </mxCell>
        <mxCell id="WKNh7f4Mb3u7yUjpXLFU-26" value="Data entrada" style="ellipse;whiteSpace=wrap;html=1;" parent="1" vertex="1">
          <mxGeometry x="40" y="315" width="100" height="50" as="geometry" />
        </mxCell>
        <mxCell id="WKNh7f4Mb3u7yUjpXLFU-27" value="Data saida" style="ellipse;whiteSpace=wrap;html=1;" parent="1" vertex="1">
          <mxGeometry x="40" y="380" width="100" height="50" as="geometry" />
        </mxCell>
        <mxCell id="WKNh7f4Mb3u7yUjpXLFU-28" value="Numero sala" style="ellipse;whiteSpace=wrap;html=1;" parent="1" vertex="1">
          <mxGeometry x="670" y="248" width="100" height="50" as="geometry" />
        </mxCell>
        <mxCell id="WKNh7f4Mb3u7yUjpXLFU-29" value="0:N" style="text;html=1;align=center;verticalAlign=middle;resizable=0;points=[];autosize=1;strokeColor=none;fillColor=none;" parent="1" vertex="1">
          <mxGeometry x="340" y="228" width="40" height="30" as="geometry" />
        </mxCell>
        <mxCell id="WKNh7f4Mb3u7yUjpXLFU-30" style="edgeStyle=orthogonalEdgeStyle;rounded=0;orthogonalLoop=1;jettySize=auto;html=1;exitX=0;exitY=1;exitDx=0;exitDy=0;entryX=0.559;entryY=0.03;entryDx=0;entryDy=0;entryPerimeter=0;" parent="1" source="WKNh7f4Mb3u7yUjpXLFU-4" target="WKNh7f4Mb3u7yUjpXLFU-6" edge="1">
          <mxGeometry relative="1" as="geometry" />
        </mxCell>
        <mxCell id="WKNh7f4Mb3u7yUjpXLFU-31" value="idTransferencia" style="ellipse;whiteSpace=wrap;html=1;" parent="1" vertex="1">
          <mxGeometry x="40" y="450" width="100" height="50" as="geometry" />
        </mxCell>
        <mxCell id="WKNh7f4Mb3u7yUjpXLFU-32" value="idMaquina" style="ellipse;whiteSpace=wrap;html=1;" parent="1" vertex="1">
          <mxGeometry x="150" y="450" width="100" height="50" as="geometry" />
        </mxCell>
        <mxCell id="WKNh7f4Mb3u7yUjpXLFU-33" value="idSala" style="ellipse;whiteSpace=wrap;html=1;" parent="1" vertex="1">
          <mxGeometry x="260" y="450" width="100" height="50" as="geometry" />
        </mxCell>
        <mxCell id="WKNh7f4Mb3u7yUjpXLFU-34" value="idTransferencia" style="ellipse;whiteSpace=wrap;html=1;" parent="1" vertex="1">
          <mxGeometry x="530" y="10" width="100" height="50" as="geometry" />
        </mxCell>
        <mxCell id="WKNh7f4Mb3u7yUjpXLFU-35" value="idMaquina" style="ellipse;whiteSpace=wrap;html=1;" parent="1" vertex="1">
          <mxGeometry x="710" y="320" width="100" height="50" as="geometry" />
        </mxCell>
        <mxCell id="WKNh7f4Mb3u7yUjpXLFU-36" value="idTransferencia" style="ellipse;whiteSpace=wrap;html=1;" parent="1" vertex="1">
          <mxGeometry x="700" y="400" width="100" height="50" as="geometry" />
        </mxCell>
        <mxCell id="WKNh7f4Mb3u7yUjpXLFU-37" value="idSala" style="ellipse;whiteSpace=wrap;html=1;" parent="1" vertex="1">
          <mxGeometry x="700" y="490" width="100" height="50" as="geometry" />
        </mxCell>
        <mxCell id="WKNh7f4Mb3u7yUjpXLFU-61" style="edgeStyle=orthogonalEdgeStyle;rounded=0;orthogonalLoop=1;jettySize=auto;html=1;exitX=0;exitY=0;exitDx=0;exitDy=0;entryX=1;entryY=0.5;entryDx=0;entryDy=0;" parent="1" source="WKNh7f4Mb3u7yUjpXLFU-38" target="WKNh7f4Mb3u7yUjpXLFU-39" edge="1">
          <mxGeometry relative="1" as="geometry" />
        </mxCell>
        <mxCell id="WKNh7f4Mb3u7yUjpXLFU-62" style="edgeStyle=orthogonalEdgeStyle;rounded=0;orthogonalLoop=1;jettySize=auto;html=1;exitX=0;exitY=0.5;exitDx=0;exitDy=0;entryX=1;entryY=0.5;entryDx=0;entryDy=0;" parent="1" source="WKNh7f4Mb3u7yUjpXLFU-38" target="WKNh7f4Mb3u7yUjpXLFU-40" edge="1">
          <mxGeometry relative="1" as="geometry" />
        </mxCell>
        <mxCell id="WKNh7f4Mb3u7yUjpXLFU-63" style="edgeStyle=orthogonalEdgeStyle;rounded=0;orthogonalLoop=1;jettySize=auto;html=1;exitX=0;exitY=1;exitDx=0;exitDy=0;entryX=1;entryY=0.5;entryDx=0;entryDy=0;" parent="1" source="WKNh7f4Mb3u7yUjpXLFU-38" target="WKNh7f4Mb3u7yUjpXLFU-41" edge="1">
          <mxGeometry relative="1" as="geometry" />
        </mxCell>
        <mxCell id="WKNh7f4Mb3u7yUjpXLFU-38" value="Status" style="ellipse;whiteSpace=wrap;html=1;" parent="1" vertex="1">
          <mxGeometry x="580" y="460" width="100" height="50" as="geometry" />
        </mxCell>
        <mxCell id="WKNh7f4Mb3u7yUjpXLFU-39" value="Em uso" style="ellipse;whiteSpace=wrap;html=1;" parent="1" vertex="1">
          <mxGeometry x="420" y="400" width="100" height="50" as="geometry" />
        </mxCell>
        <mxCell id="WKNh7f4Mb3u7yUjpXLFU-40" value="Vaga" style="ellipse;whiteSpace=wrap;html=1;" parent="1" vertex="1">
          <mxGeometry x="420" y="460" width="100" height="50" as="geometry" />
        </mxCell>
        <mxCell id="WKNh7f4Mb3u7yUjpXLFU-41" value="Manutencao" style="ellipse;whiteSpace=wrap;html=1;" parent="1" vertex="1">
          <mxGeometry x="420" y="520" width="100" height="50" as="geometry" />
        </mxCell>
        <mxCell id="WKNh7f4Mb3u7yUjpXLFU-51" style="edgeStyle=orthogonalEdgeStyle;rounded=0;orthogonalLoop=1;jettySize=auto;html=1;exitX=0.75;exitY=0;exitDx=0;exitDy=0;entryX=0.602;entryY=1.035;entryDx=0;entryDy=0;entryPerimeter=0;" parent="1" source="WKNh7f4Mb3u7yUjpXLFU-4" target="WKNh7f4Mb3u7yUjpXLFU-34" edge="1">
          <mxGeometry relative="1" as="geometry" />
        </mxCell>
        <mxCell id="WKNh7f4Mb3u7yUjpXLFU-66" value="0:N" style="text;html=1;align=center;verticalAlign=middle;resizable=0;points=[];autosize=1;strokeColor=none;fillColor=none;" parent="1" vertex="1">
          <mxGeometry x="520" y="248" width="40" height="30" as="geometry" />
        </mxCell>
      </root>
    </mxGraphModel>
  </diagram>
</mxfile>
